<svg width="22" height="22" viewBox="0 0 22 22" fill="none" xmlns="http://www.w3.org/2000/svg">
<path d="M10.9051 0C4.88329 0 0.00282642 4.48453 0.00282642 10.0191C0.00282642 12.312 0.850307 14.4121 2.25568 16.1029C1.62113 18.0007 0.300935 19.6096 0.279642 19.6288C-0.00143228 19.966 -0.0780888 20.4573 0.0837416 20.8812C0.245572 21.3051 0.616078 21.5797 1.02491 21.5797C3.64401 21.5797 5.70948 20.3417 6.94876 19.3494C8.17952 19.7878 9.50823 20.0383 10.9051 20.0383C16.9269 20.0383 21.8073 15.5537 21.8073 10.0191C21.8073 4.48453 16.9269 0 10.9051 0ZM10.9051 17.7262C9.76801 17.7262 8.64372 17.5287 7.56627 17.1433L6.59954 16.7965L5.7691 17.4612C5.16011 17.9477 4.3254 18.492 3.32035 18.8581C3.63123 18.2753 3.9336 17.6202 4.16783 16.9217L4.61925 15.5682L3.74196 14.5181C2.97114 13.5884 2.047 12.0519 2.047 10.0191C2.047 5.77064 6.02036 2.31211 10.9051 2.31211C15.7898 2.31211 19.7632 5.77064 19.7632 10.0191C19.7632 14.2676 15.7898 17.7262 10.9051 17.7262Z" fill="#878A8C"/>
</svg>
