<svg width="25" height="25" viewBox="0 0 25 25" fill="none" xmlns="http://www.w3.org/2000/svg">
<g clip-path="url(#clip0_18_215)">
<path d="M23.2888 20.4352C20.632 19.2354 20.531 14.0855 20.529 13.9556V10.5006C20.529 7.17534 18.4971 4.31598 15.6096 3.09849C15.6034 1.38889 14.211 0 12.5001 0C10.7892 0 9.39684 1.38897 9.39059 3.09841C6.50325 4.3159 4.47126 7.17526 4.47126 10.5005V13.9555C4.46938 14.0854 4.36824 19.2354 1.71141 20.4352C1.40875 20.5719 1.24241 20.9013 1.31239 21.226C1.38228 21.5507 1.66942 21.7826 2.00157 21.7826H8.73687C8.87494 22.5422 9.23409 23.2488 9.7834 23.8212C10.513 24.5813 11.4778 24.9999 12.5 24.9999C13.5223 24.9999 14.4871 24.5813 15.2166 23.8212C15.766 23.2488 16.1251 22.5421 16.2631 21.7826H22.9984C23.3306 21.7826 23.6177 21.5508 23.6876 21.226C23.7577 20.9013 23.5914 20.5719 23.2888 20.4352ZM19.7891 17.9681C20.0683 18.8149 20.4638 19.6652 21.0246 20.3728H3.97555C4.53625 19.6653 4.93172 18.815 5.21101 17.9681H19.7891ZM12.5001 1.40993C13.274 1.40993 13.9283 1.92995 14.1331 2.63877C13.6056 2.52937 13.0595 2.4717 12.5001 2.4717C11.9408 2.4717 11.3946 2.52933 10.8671 2.63877C11.0719 1.92999 11.7263 1.40993 12.5001 1.40993ZM5.88119 13.9598V10.5005C5.88119 6.85083 8.85039 3.88162 12.5001 3.88162C16.1498 3.88162 19.119 6.85083 19.119 10.5005V13.9656C19.12 14.0716 19.1365 15.1861 19.4174 16.5581H5.5827C5.86375 15.1848 5.88033 14.0684 5.88119 13.9598ZM12.5001 23.5901C11.4241 23.5901 10.485 22.8143 10.1836 21.7827H14.8166C14.5152 22.8143 13.5762 23.5901 12.5001 23.5901Z" fill="#FF4500"/>
<path d="M12.5001 4.87072C9.467 4.87072 6.99939 7.33825 6.99939 10.3713C6.99939 10.7606 7.31504 11.0763 7.70437 11.0763C8.09371 11.0763 8.40936 10.7606 8.40936 10.3713C8.40936 8.1157 10.2445 6.28065 12.5001 6.28065C12.8895 6.28065 13.2051 5.965 13.2051 5.57566C13.2051 5.18628 12.8894 4.87072 12.5001 4.87072Z" fill="#FF4500"/>
</g>
<defs>
<clipPath id="clip0_18_215">
<rect width="25" height="25" fill="white"/>
</clipPath>
</defs>
</svg>
