<svg width="41" height="41" viewBox="0 0 41 41" fill="none" xmlns="http://www.w3.org/2000/svg">
<g clip-path="url(#clip0_3_10)">
<path d="M20.5 41C31.8218 41 41 31.8218 41 20.5C41 9.17816 31.8218 0 20.5 0C9.17816 0 0 9.17816 0 20.5C0 31.8218 9.17816 41 20.5 41Z" fill="#FF4500"/>
<path d="M34.1735 20.5C34.1776 20.7809 34.1428 21.0612 34.069 21.3323C33.9952 21.6034 33.8834 21.8633 33.7369 22.1031C33.5908 22.343 33.4114 22.5613 33.2044 22.7514C32.9973 22.9416 32.7646 23.1015 32.513 23.2265C32.5186 23.3013 32.5233 23.3767 32.5258 23.452C32.532 23.6023 32.532 23.7527 32.5258 23.903C32.5233 23.9783 32.5186 24.0537 32.513 24.1285C32.513 28.7205 27.1625 32.4515 20.5615 32.4515C13.9605 32.4515 8.61 28.7205 8.61 24.1285C8.60436 24.0537 8.59975 23.9783 8.59719 23.903C8.59102 23.7527 8.59102 23.6023 8.59719 23.452C8.59975 23.3767 8.60436 23.3013 8.61 23.2265C8.21576 23.0453 7.86561 22.7806 7.58377 22.4507C7.30193 22.1208 7.09513 21.7336 6.97769 21.3159C6.86044 20.898 6.83547 20.4596 6.9045 20.0311C6.97352 19.6027 7.1349 19.1943 7.37744 18.8344C7.61977 18.4745 7.93749 18.1717 8.30857 17.9469C8.67964 17.7221 9.09518 17.5807 9.52635 17.5326C9.95758 17.4843 10.3942 17.5303 10.8058 17.6675C11.2175 17.8046 11.5944 18.0297 11.9105 18.327C12.4972 17.9293 13.112 17.5746 13.7499 17.2656C14.3879 16.9571 15.0475 16.6947 15.7235 16.4815C16.3995 16.2683 17.0903 16.1048 17.7899 15.9915C18.4895 15.8783 19.1967 15.8163 19.9055 15.8055L21.4225 8.692C21.4394 8.60949 21.4727 8.53159 21.5204 8.46189C21.5675 8.3927 21.6285 8.33325 21.6987 8.28764C21.7695 8.24203 21.8484 8.21076 21.9314 8.19539C22.0139 8.18053 22.099 8.18206 22.181 8.2L27.2035 9.2045C27.7104 8.33376 28.7743 7.96066 29.7137 8.32351C30.6531 8.68636 31.1902 9.67805 30.9801 10.6631C30.7705 11.6481 29.8757 12.3349 28.8702 12.2831C27.8641 12.2313 27.0446 11.4564 26.937 10.455L22.55 9.5325L21.2175 15.9285C21.9176 15.9434 22.6161 16.009 23.307 16.1243C24.6904 16.3549 26.0334 16.784 27.2942 17.3984C27.924 17.7048 28.5308 18.0563 29.11 18.45C29.5265 18.0502 30.0498 17.7794 30.6168 17.6705C31.1837 17.5612 31.7702 17.6183 32.3054 17.835C32.8407 18.0516 33.3019 18.4184 33.6333 18.8913C33.9649 19.3641 34.1525 19.9229 34.1735 20.5ZM13.8293 23.3346C13.9328 23.5832 14.0835 23.8092 14.2742 23.9994C14.4643 24.19 14.6903 24.3407 14.9389 24.4442C15.1877 24.5471 15.4543 24.6 15.7235 24.6C16.5527 24.6 17.3 24.1003 17.6177 23.3346C17.9349 22.5685 17.7592 21.687 17.1729 21.1007C16.5866 20.5144 15.7051 20.3386 14.9389 20.6558C14.1732 20.9736 13.6735 21.7208 13.6735 22.55C13.6735 22.8191 13.7263 23.0856 13.8293 23.3346ZM25.5707 28.2557C25.6757 28.1532 25.7357 28.0133 25.7378 27.8667C25.7398 27.7196 25.6829 27.5781 25.5804 27.4731C25.4779 27.368 25.338 27.3081 25.1914 27.306C25.0443 27.3039 24.9029 27.3608 24.7845 27.4495C24.4762 27.6706 24.1498 27.8652 23.8087 28.0312C23.4676 28.1973 23.113 28.3342 22.7489 28.4407C22.385 28.5468 22.0124 28.6221 21.6357 28.6657C21.2585 28.7092 20.8787 28.7205 20.5 28.7C20.1218 28.7169 19.7425 28.7015 19.3669 28.6544C18.9911 28.6077 18.6201 28.5288 18.2578 28.4186C17.895 28.309 17.5429 28.1685 17.2041 27.9994C16.8654 27.8303 16.5415 27.6325 16.236 27.4085C16.1299 27.3214 15.9951 27.2768 15.8578 27.2834C15.7204 27.2901 15.5908 27.348 15.4934 27.4449C15.3965 27.5423 15.3386 27.6719 15.332 27.8093C15.3253 27.9466 15.3699 28.0814 15.457 28.1875C15.8173 28.4591 16.2001 28.699 16.6014 28.905C17.0027 29.111 17.4214 29.2817 17.8519 29.416C18.2824 29.5502 18.7237 29.6471 19.1711 29.706C19.6185 29.7645 20.07 29.7844 20.5205 29.766C20.971 29.7844 21.4225 29.7645 21.8699 29.706C22.766 29.5882 23.6352 29.3172 24.4396 28.905C24.8409 28.699 25.2237 28.4591 25.584 28.1875L25.5707 28.2557ZM25.1945 24.764C25.4723 24.7671 25.748 24.7133 26.0048 24.6067C26.2615 24.4995 26.4937 24.3417 26.6874 24.1423C26.8811 23.943 27.0318 23.7062 27.1312 23.4464C27.2307 23.1868 27.2763 22.9097 27.265 22.632C27.265 21.8028 26.7653 21.0556 25.9996 20.7378C25.2335 20.4206 24.352 20.5964 23.7657 21.1827C23.1794 21.769 23.0036 22.6505 23.3208 23.4166C23.6386 24.1823 24.3858 24.682 25.215 24.682L25.1945 24.764Z" fill="white"/>
</g>
<defs>
<clipPath id="clip0_3_10">
<rect width="41" height="41" fill="white"/>
</clipPath>
</defs>
</svg>
